<svg width="90" height="18" viewBox="0 0 90 18" fill="none" xmlns="http://www.w3.org/2000/svg">
<g id="Group 8">
<path id="&#244;&#128;&#136;&#142;" d="M42.6484 16.9729C41.7839 16.9729 41.125 16.749 40.6719 16.301C40.224 15.8583 40 15.2073 40 14.3479V5.41823C40 4.56406 40.224 3.91302 40.6719 3.4651C41.125 3.01719 41.7839 2.79323 42.6484 2.79323H51.2344L49.5 4.53542H42.7969C42.4531 4.53542 42.1901 4.62396 42.0078 4.80104C41.8255 4.97812 41.7344 5.24635 41.7344 5.60573V14.176C41.7344 14.5354 41.8255 14.8036 42.0078 14.9807C42.1901 15.1526 42.4531 15.2385 42.7969 15.2385H51.5547C51.8099 15.2385 52.0208 15.1526 52.1875 14.9807C52.3542 14.8036 52.4375 14.5354 52.4375 14.176V7.5276L54.1797 5.79323V14.3479C54.1797 15.2073 53.9609 15.8583 53.5234 16.301C53.0911 16.749 52.4818 16.9729 51.6953 16.9729H42.6484ZM45.6797 11.6448C45.5807 11.6812 45.487 11.6578 45.3984 11.5745C45.3099 11.4911 45.2891 11.3974 45.3359 11.2932L46.0391 9.69167L53.0469 2.68385L54.3281 3.95729L47.3203 10.9651L45.6797 11.6448ZM54.9375 3.35573L53.6562 2.06667L54.1797 1.54323C54.3411 1.38698 54.526 1.30104 54.7344 1.28542C54.9479 1.26458 55.125 1.32187 55.2656 1.45729L55.4922 1.69167C55.6536 1.84792 55.7318 2.03021 55.7266 2.23854C55.7214 2.44687 55.6354 2.63698 55.4688 2.80885L54.9375 3.35573Z" fill="black"/>
<path id="&#244;&#128;&#139;&#173;" d="M10.7812 16.8984C9.71354 16.8984 8.70833 16.7682 7.76562 16.5078C6.82292 16.2526 5.95052 15.9141 5.14844 15.4922C4.34635 15.0703 3.6276 14.6042 2.99219 14.0938C2.36198 13.5833 1.82292 13.0729 1.375 12.5625C0.927083 12.0521 0.585938 11.5807 0.351562 11.1484C0.117188 10.7109 0 10.3568 0 10.0859C0 9.82031 0.117188 9.47135 0.351562 9.03906C0.585938 8.60156 0.927083 8.1276 1.375 7.61719C1.82292 7.10677 2.36198 6.59635 2.99219 6.08594C3.6276 5.57552 4.34635 5.10938 5.14844 4.6875C5.95052 4.26562 6.82292 3.92708 7.76562 3.67188C8.71354 3.41146 9.71875 3.28125 10.7812 3.28125C11.8542 3.28125 12.8646 3.41146 13.8125 3.67188C14.7656 3.92708 15.6432 4.26562 16.4453 4.6875C17.2474 5.10938 17.9635 5.57552 18.5938 6.08594C19.224 6.59635 19.7578 7.10677 20.1953 7.61719C20.638 8.1276 20.974 8.60156 21.2031 9.03906C21.4375 9.47135 21.5547 9.82031 21.5547 10.0859C21.5547 10.3568 21.4375 10.7109 21.2031 11.1484C20.974 11.5807 20.638 12.0521 20.1953 12.5625C19.7578 13.0729 19.224 13.5833 18.5938 14.0938C17.9635 14.6042 17.2474 15.0703 16.4453 15.4922C15.6484 15.9141 14.7734 16.2526 13.8203 16.5078C12.8724 16.7682 11.8594 16.8984 10.7812 16.8984ZM10.7812 15.2031C11.5885 15.2031 12.3646 15.1042 13.1094 14.9062C13.8542 14.7083 14.5495 14.4479 15.1953 14.125C15.8411 13.7969 16.4271 13.4401 16.9531 13.0547C17.4792 12.6641 17.9297 12.276 18.3047 11.8906C18.6797 11.5052 18.9688 11.1536 19.1719 10.8359C19.375 10.5182 19.4766 10.2682 19.4766 10.0859C19.4766 9.9349 19.375 9.70833 19.1719 9.40625C18.9688 9.10417 18.6797 8.76042 18.3047 8.375C17.9297 7.98438 17.4792 7.59375 16.9531 7.20312C16.4271 6.80729 15.8411 6.44271 15.1953 6.10938C14.5495 5.77083 13.8542 5.5 13.1094 5.29688C12.3646 5.08854 11.5885 4.98438 10.7812 4.98438C9.96354 4.98438 9.18229 5.08854 8.4375 5.29688C7.69271 5.5 6.9974 5.77083 6.35156 6.10938C5.70573 6.44271 5.11979 6.80729 4.59375 7.20312C4.07292 7.59375 3.6224 7.98438 3.24219 8.375C2.86719 8.76042 2.57812 9.10417 2.375 9.40625C2.17708 9.70833 2.07812 9.9349 2.07812 10.0859C2.07812 10.2682 2.17708 10.5182 2.375 10.8359C2.57812 11.1536 2.86719 11.5052 3.24219 11.8906C3.6224 12.276 4.07292 12.6641 4.59375 13.0547C5.11979 13.4401 5.70573 13.7969 6.35156 14.125C6.9974 14.4479 7.69271 14.7083 8.4375 14.9062C9.18229 15.1042 9.96354 15.2031 10.7812 15.2031ZM10.7812 14.1719C10.2083 14.1719 9.67448 14.0651 9.17969 13.8516C8.6849 13.638 8.25 13.3438 7.875 12.9688C7.5 12.5885 7.20573 12.151 6.99219 11.6562C6.78385 11.1615 6.67969 10.638 6.67969 10.0859C6.67969 9.51823 6.78385 8.98698 6.99219 8.49219C7.20573 7.9974 7.5 7.5651 7.875 7.19531C8.25 6.82031 8.6849 6.52865 9.17969 6.32031C9.67448 6.11198 10.2083 6.00781 10.7812 6.00781C11.349 6.00781 11.8802 6.11198 12.375 6.32031C12.8698 6.52865 13.3047 6.82031 13.6797 7.19531C14.0547 7.5651 14.3464 7.9974 14.5547 8.49219C14.7682 8.98698 14.875 9.51823 14.875 10.0859C14.875 10.638 14.7682 11.1615 14.5547 11.6562C14.3464 12.151 14.0547 12.5885 13.6797 12.9688C13.3047 13.3438 12.8698 13.638 12.375 13.8516C11.8802 14.0651 11.349 14.1719 10.7812 14.1719ZM10.7734 11.3828C11.1328 11.3828 11.4401 11.2552 11.6953 11C11.9505 10.7448 12.0781 10.4401 12.0781 10.0859C12.0781 9.73177 11.9505 9.42969 11.6953 9.17969C11.4401 8.92448 11.1328 8.79688 10.7734 8.79688C10.4141 8.79688 10.1068 8.92448 9.85156 9.17969C9.60156 9.42969 9.47656 9.73177 9.47656 10.0859C9.47656 10.4401 9.60156 10.7448 9.85156 11C10.1068 11.2552 10.4141 11.3828 10.7734 11.3828Z" fill="black"/>
<path id="&#244;&#128;&#136;&#145;" d="M79.7109 15.0625C79.5391 15.0625 79.401 15.013 79.2969 14.9141C79.1927 14.8099 79.138 14.6745 79.1328 14.5078L78.8984 6.44531C78.8932 6.27865 78.9427 6.14583 79.0469 6.04688C79.151 5.94271 79.2891 5.89062 79.4609 5.89062C79.6328 5.89062 79.7708 5.94271 79.875 6.04688C79.9844 6.14583 80.0417 6.27604 80.0469 6.4375L80.2812 14.5C80.2812 14.6667 80.2292 14.8021 80.125 14.9062C80.0208 15.0104 79.8828 15.0625 79.7109 15.0625ZM82 15.0625C81.8281 15.0625 81.6875 15.013 81.5781 14.9141C81.474 14.8099 81.4219 14.6745 81.4219 14.5078V6.44531C81.4219 6.27865 81.474 6.14583 81.5781 6.04688C81.6875 5.94271 81.8281 5.89062 82 5.89062C82.1771 5.89062 82.3177 5.94271 82.4219 6.04688C82.5312 6.14583 82.5859 6.27865 82.5859 6.44531V14.5078C82.5859 14.6745 82.5312 14.8099 82.4219 14.9141C82.3177 15.013 82.1771 15.0625 82 15.0625ZM84.2969 15.0625C84.1198 15.0625 83.9792 15.0104 83.875 14.9062C83.7708 14.8021 83.7214 14.6667 83.7266 14.5L83.9609 6.44531C83.9661 6.27865 84.0208 6.14583 84.125 6.04688C84.2292 5.94271 84.3672 5.89062 84.5391 5.89062C84.7161 5.89062 84.8542 5.94271 84.9531 6.04688C85.0573 6.14583 85.1068 6.27865 85.1016 6.44531L84.875 14.5078C84.8698 14.6745 84.8125 14.8099 84.7031 14.9141C84.599 15.013 84.4635 15.0625 84.2969 15.0625ZM78.3594 3.60938V1.95312C78.3594 1.33854 78.5469 0.859375 78.9219 0.515625C79.3021 0.171875 79.8307 0 80.5078 0H83.4844C84.1615 0 84.6875 0.171875 85.0625 0.515625C85.4427 0.859375 85.6328 1.33854 85.6328 1.95312V3.60938H84.0391V2.02344C84.0391 1.84115 83.9766 1.69531 83.8516 1.58594C83.7318 1.47135 83.5703 1.41406 83.3672 1.41406H80.625C80.4219 1.41406 80.2578 1.47135 80.1328 1.58594C80.013 1.69531 79.9531 1.84115 79.9531 2.02344V3.60938H78.3594ZM74.9688 4.63281C74.7552 4.63281 74.5729 4.5599 74.4219 4.41406C74.2708 4.26823 74.1953 4.08594 74.1953 3.86719C74.1953 3.65365 74.2708 3.47396 74.4219 3.32812C74.5729 3.18229 74.7552 3.10938 74.9688 3.10938H89.0391C89.2526 3.10938 89.4323 3.18229 89.5781 3.32812C89.7292 3.46875 89.8047 3.64844 89.8047 3.86719C89.8047 4.08594 89.7318 4.26823 89.5859 4.41406C89.4401 4.5599 89.2578 4.63281 89.0391 4.63281H74.9688ZM78.4062 17.8047C77.776 17.8047 77.2734 17.6302 76.8984 17.2812C76.5234 16.9323 76.3229 16.4427 76.2969 15.8125L75.7656 4.47656H77.3359L77.8594 15.5C77.8698 15.7292 77.9401 15.9141 78.0703 16.0547C78.2057 16.1953 78.3802 16.2656 78.5938 16.2656H85.3984C85.6172 16.2656 85.7917 16.1953 85.9219 16.0547C86.0573 15.9193 86.1302 15.7344 86.1406 15.5L86.6484 4.47656H88.2422L87.7109 15.8047C87.6849 16.4401 87.4818 16.9323 87.1016 17.2812C86.7266 17.6302 86.2266 17.8047 85.6016 17.8047H78.4062Z" fill="black"/>
</g>
</svg>
