<svg width="16" height="16" viewBox="0 0 16 16" fill="none" xmlns="http://www.w3.org/2000/svg">
<path d="M2.64844 15.9729C1.78385 15.9729 1.125 15.749 0.671875 15.301C0.223958 14.8583 0 14.2073 0 13.3479V4.41823C0 3.56406 0.223958 2.91302 0.671875 2.4651C1.125 2.01719 1.78385 1.79323 2.64844 1.79323H11.2344L9.5 3.53542H2.79688C2.45312 3.53542 2.1901 3.62396 2.00781 3.80104C1.82552 3.97812 1.73438 4.24635 1.73438 4.60573V13.176C1.73438 13.5354 1.82552 13.8036 2.00781 13.9807C2.1901 14.1526 2.45312 14.2385 2.79688 14.2385H11.5547C11.8099 14.2385 12.0208 14.1526 12.1875 13.9807C12.3542 13.8036 12.4375 13.5354 12.4375 13.176V6.5276L14.1797 4.79323V13.3479C14.1797 14.2073 13.9609 14.8583 13.5234 15.301C13.0911 15.749 12.4818 15.9729 11.6953 15.9729H2.64844ZM5.67969 10.6448C5.58073 10.6812 5.48698 10.6578 5.39844 10.5745C5.3099 10.4911 5.28906 10.3974 5.33594 10.2932L6.03906 8.69167L13.0469 1.68385L14.3281 2.95729L7.32031 9.9651L5.67969 10.6448ZM14.9375 2.35573L13.6562 1.06667L14.1797 0.543229C14.3411 0.386979 14.526 0.301042 14.7344 0.285417C14.9479 0.264583 15.125 0.321875 15.2656 0.457292L15.4922 0.691667C15.6536 0.847917 15.7318 1.03021 15.7266 1.23854C15.7214 1.44687 15.6354 1.63698 15.4688 1.80885L14.9375 2.35573Z" fill="black"/>
</svg>
