<svg width="142" height="34" viewBox="0 0 142 34" fill="none" xmlns="http://www.w3.org/2000/svg">
<path d="M0.994318 10.1861V6.63636H17.7188V10.1861H11.4844V27H7.22869V10.1861H0.994318ZM21.4947 27H16.881L23.9109 6.63636H29.4592L36.479 27H31.8654L26.7646 11.2898H26.6055L21.4947 27ZM21.2063 18.9957H32.104V22.3565H21.2063V18.9957ZM49.5121 12.4929C49.4325 11.6908 49.0911 11.0677 48.4879 10.6236C47.8847 10.1794 47.0661 9.95739 46.032 9.95739C45.3293 9.95739 44.736 10.0568 44.2521 10.2557C43.7682 10.4479 43.397 10.7164 43.1385 11.0611C42.8866 11.4058 42.7607 11.7969 42.7607 12.2344C42.7474 12.599 42.8236 12.9171 42.9893 13.1889C43.1617 13.4607 43.397 13.696 43.6953 13.8949C43.9936 14.0871 44.3383 14.2562 44.7294 14.402C45.1205 14.5412 45.5381 14.6605 45.9822 14.7599L47.8118 15.1974C48.7 15.3963 49.5154 15.6615 50.2578 15.9929C51.0002 16.3243 51.6432 16.732 52.1868 17.2159C52.7304 17.6998 53.1513 18.2699 53.4496 18.9261C53.7545 19.5824 53.9103 20.3348 53.9169 21.1832C53.9103 22.4295 53.5921 23.5099 52.9624 24.4247C52.3393 25.3329 51.4377 26.0388 50.2578 26.5426C49.0845 27.0398 47.6693 27.2884 46.0121 27.2884C44.3681 27.2884 42.9363 27.0365 41.7166 26.5327C40.5036 26.0289 39.5556 25.2831 38.8729 24.2955C38.1967 23.3011 37.8421 22.0715 37.8089 20.6065H41.9751C42.0215 21.2893 42.2171 21.8594 42.5618 22.3168C42.9131 22.7675 43.3804 23.1089 43.9638 23.3409C44.5537 23.5663 45.2199 23.679 45.9624 23.679C46.6915 23.679 47.3246 23.5729 47.8615 23.3608C48.4051 23.1487 48.826 22.8537 49.1243 22.4759C49.4226 22.098 49.5717 21.6638 49.5717 21.1733C49.5717 20.7159 49.4358 20.3314 49.1641 20.0199C48.8989 19.7083 48.5078 19.4432 47.9908 19.2244C47.4804 19.0057 46.8539 18.8068 46.1115 18.6278L43.8942 18.071C42.1773 17.6534 40.8217 17.0005 39.8274 16.1122C38.8331 15.224 38.3393 14.0275 38.3459 12.5227C38.3393 11.2898 38.6674 10.2126 39.3303 9.29119C39.9998 8.36979 40.9179 7.65057 42.0845 7.13352C43.2512 6.61648 44.5769 6.35795 46.0618 6.35795C47.5732 6.35795 48.8923 6.61648 50.0192 7.13352C51.1527 7.65057 52.0343 8.36979 52.6641 9.29119C53.2938 10.2126 53.6186 11.2798 53.6385 12.4929H49.5121ZM56.8129 27V6.63636H61.1183V15.6151H61.3867L68.7148 6.63636H73.8754L66.3185 15.7543L73.9648 27H68.8143L63.2362 18.6278L61.1183 21.2131V27H56.8129Z" fill="#48C15B"/>
<path d="M80.4229 6.63636V27H76.1175V6.63636H80.4229ZM83.1896 10.1861V6.63636H99.9141V10.1861H93.6797V27H89.424V10.1861H83.1896Z" fill="black"/>
</svg>
