<svg width="17" height="15" viewBox="0 0 17 15" fill="none" xmlns="http://www.w3.org/2000/svg">
<path d="M2.22168 14.7998C1.48796 14.7998 0.934245 14.6107 0.560547 14.2324C0.186849 13.8542 0 13.2959 0 12.5576V2.24219C0 1.50846 0.186849 0.952474 0.560547 0.574219C0.934245 0.191406 1.48796 0 2.22168 0H9.50195C10.2357 0 10.7894 0.191406 11.1631 0.574219C11.5368 0.952474 11.7236 1.50846 11.7236 2.24219V5.44141H10.3838V2.33105C10.3838 2.01204 10.3018 1.76823 10.1377 1.59961C9.97363 1.42643 9.72526 1.33984 9.39258 1.33984H2.33789C2.00521 1.33984 1.75684 1.42643 1.59277 1.59961C1.42871 1.76823 1.34668 2.01204 1.34668 2.33105V12.4756C1.34668 12.79 1.42871 13.0316 1.59277 13.2002C1.75684 13.3688 2.00521 13.4531 2.33789 13.4531H9.39258C9.72526 13.4531 9.97363 13.3688 10.1377 13.2002C10.3018 13.0316 10.3838 12.79 10.3838 12.4756V9.35156H11.7236V12.5576C11.7236 13.2959 11.5368 13.8542 11.1631 14.2324C10.7894 14.6107 10.2357 14.7998 9.50195 14.7998H2.22168ZM6.63086 8.02539C6.46224 8.02539 6.31641 7.96387 6.19336 7.84082C6.07031 7.71777 6.00879 7.56966 6.00879 7.39648C6.00879 7.22331 6.07031 7.0752 6.19336 6.95215C6.31641 6.82454 6.46224 6.76074 6.63086 6.76074H13.5146L14.5332 6.81543L14.0273 6.3916L13.0156 5.42773C12.888 5.31836 12.8242 5.1748 12.8242 4.99707C12.8242 4.84212 12.8743 4.70996 12.9746 4.60059C13.0749 4.49121 13.207 4.43652 13.3711 4.43652C13.5215 4.43652 13.6559 4.49805 13.7744 4.62109L15.9893 6.91797C16.0667 6.99544 16.1214 7.0752 16.1533 7.15723C16.1852 7.2347 16.2012 7.31445 16.2012 7.39648C16.2012 7.47852 16.1852 7.55827 16.1533 7.63574C16.1214 7.71322 16.0667 7.79297 15.9893 7.875L13.7744 10.1719C13.6559 10.2904 13.5215 10.3496 13.3711 10.3496C13.207 10.3496 13.0749 10.2949 12.9746 10.1855C12.8743 10.0716 12.8242 9.93717 12.8242 9.78223C12.8242 9.61361 12.888 9.47233 13.0156 9.3584L14.0273 8.40137L14.5332 7.97754L13.5146 8.02539H6.63086Z" fill="#898989"/>
</svg>
