<svg width="16" height="18" viewBox="0 0 16 18" fill="none" xmlns="http://www.w3.org/2000/svg">
<path d="M5.71094 15.0625C5.53906 15.0625 5.40104 15.013 5.29688 14.9141C5.19271 14.8099 5.13802 14.6745 5.13281 14.5078L4.89844 6.44531C4.89323 6.27865 4.94271 6.14583 5.04688 6.04688C5.15104 5.94271 5.28906 5.89062 5.46094 5.89062C5.63281 5.89062 5.77083 5.94271 5.875 6.04688C5.98438 6.14583 6.04167 6.27604 6.04688 6.4375L6.28125 14.5C6.28125 14.6667 6.22917 14.8021 6.125 14.9062C6.02083 15.0104 5.88281 15.0625 5.71094 15.0625ZM8 15.0625C7.82812 15.0625 7.6875 15.013 7.57812 14.9141C7.47396 14.8099 7.42188 14.6745 7.42188 14.5078V6.44531C7.42188 6.27865 7.47396 6.14583 7.57812 6.04688C7.6875 5.94271 7.82812 5.89062 8 5.89062C8.17708 5.89062 8.31771 5.94271 8.42188 6.04688C8.53125 6.14583 8.58594 6.27865 8.58594 6.44531V14.5078C8.58594 14.6745 8.53125 14.8099 8.42188 14.9141C8.31771 15.013 8.17708 15.0625 8 15.0625ZM10.2969 15.0625C10.1198 15.0625 9.97917 15.0104 9.875 14.9062C9.77083 14.8021 9.72135 14.6667 9.72656 14.5L9.96094 6.44531C9.96615 6.27865 10.0208 6.14583 10.125 6.04688C10.2292 5.94271 10.3672 5.89062 10.5391 5.89062C10.7161 5.89062 10.8542 5.94271 10.9531 6.04688C11.0573 6.14583 11.1068 6.27865 11.1016 6.44531L10.875 14.5078C10.8698 14.6745 10.8125 14.8099 10.7031 14.9141C10.599 15.013 10.4635 15.0625 10.2969 15.0625ZM4.35938 3.60938V1.95312C4.35938 1.33854 4.54688 0.859375 4.92188 0.515625C5.30208 0.171875 5.83073 0 6.50781 0H9.48438C10.1615 0 10.6875 0.171875 11.0625 0.515625C11.4427 0.859375 11.6328 1.33854 11.6328 1.95312V3.60938H10.0391V2.02344C10.0391 1.84115 9.97656 1.69531 9.85156 1.58594C9.73177 1.47135 9.57031 1.41406 9.36719 1.41406H6.625C6.42188 1.41406 6.25781 1.47135 6.13281 1.58594C6.01302 1.69531 5.95312 1.84115 5.95312 2.02344V3.60938H4.35938ZM0.96875 4.63281C0.755208 4.63281 0.572917 4.5599 0.421875 4.41406C0.270833 4.26823 0.195312 4.08594 0.195312 3.86719C0.195312 3.65365 0.270833 3.47396 0.421875 3.32812C0.572917 3.18229 0.755208 3.10938 0.96875 3.10938H15.0391C15.2526 3.10938 15.4323 3.18229 15.5781 3.32812C15.7292 3.46875 15.8047 3.64844 15.8047 3.86719C15.8047 4.08594 15.7318 4.26823 15.5859 4.41406C15.4401 4.5599 15.2578 4.63281 15.0391 4.63281H0.96875ZM4.40625 17.8047C3.77604 17.8047 3.27344 17.6302 2.89844 17.2812C2.52344 16.9323 2.32292 16.4427 2.29688 15.8125L1.76562 4.47656H3.33594L3.85938 15.5C3.86979 15.7292 3.9401 15.9141 4.07031 16.0547C4.20573 16.1953 4.38021 16.2656 4.59375 16.2656H11.3984C11.6172 16.2656 11.7917 16.1953 11.9219 16.0547C12.0573 15.9193 12.1302 15.7344 12.1406 15.5L12.6484 4.47656H14.2422L13.7109 15.8047C13.6849 16.4401 13.4818 16.9323 13.1016 17.2812C12.7266 17.6302 12.2266 17.8047 11.6016 17.8047H4.40625Z" fill="black"/>
</svg>
