<svg width="22" height="14" viewBox="0 0 22 14" fill="none" xmlns="http://www.w3.org/2000/svg">
<path d="M10.7812 13.8984C9.71354 13.8984 8.70833 13.7682 7.76562 13.5078C6.82292 13.2526 5.95052 12.9141 5.14844 12.4922C4.34635 12.0703 3.6276 11.6042 2.99219 11.0938C2.36198 10.5833 1.82292 10.0729 1.375 9.5625C0.927083 9.05208 0.585938 8.58073 0.351562 8.14844C0.117188 7.71094 0 7.35677 0 7.08594C0 6.82031 0.117188 6.47135 0.351562 6.03906C0.585938 5.60156 0.927083 5.1276 1.375 4.61719C1.82292 4.10677 2.36198 3.59635 2.99219 3.08594C3.6276 2.57552 4.34635 2.10938 5.14844 1.6875C5.95052 1.26562 6.82292 0.927083 7.76562 0.671875C8.71354 0.411458 9.71875 0.28125 10.7812 0.28125C11.8542 0.28125 12.8646 0.411458 13.8125 0.671875C14.7656 0.927083 15.6432 1.26562 16.4453 1.6875C17.2474 2.10938 17.9635 2.57552 18.5938 3.08594C19.224 3.59635 19.7578 4.10677 20.1953 4.61719C20.638 5.1276 20.974 5.60156 21.2031 6.03906C21.4375 6.47135 21.5547 6.82031 21.5547 7.08594C21.5547 7.35677 21.4375 7.71094 21.2031 8.14844C20.974 8.58073 20.638 9.05208 20.1953 9.5625C19.7578 10.0729 19.224 10.5833 18.5938 11.0938C17.9635 11.6042 17.2474 12.0703 16.4453 12.4922C15.6484 12.9141 14.7734 13.2526 13.8203 13.5078C12.8724 13.7682 11.8594 13.8984 10.7812 13.8984ZM10.7812 12.2031C11.5885 12.2031 12.3646 12.1042 13.1094 11.9062C13.8542 11.7083 14.5495 11.4479 15.1953 11.125C15.8411 10.7969 16.4271 10.4401 16.9531 10.0547C17.4792 9.66406 17.9297 9.27604 18.3047 8.89062C18.6797 8.50521 18.9688 8.15365 19.1719 7.83594C19.375 7.51823 19.4766 7.26823 19.4766 7.08594C19.4766 6.9349 19.375 6.70833 19.1719 6.40625C18.9688 6.10417 18.6797 5.76042 18.3047 5.375C17.9297 4.98438 17.4792 4.59375 16.9531 4.20312C16.4271 3.80729 15.8411 3.44271 15.1953 3.10938C14.5495 2.77083 13.8542 2.5 13.1094 2.29688C12.3646 2.08854 11.5885 1.98438 10.7812 1.98438C9.96354 1.98438 9.18229 2.08854 8.4375 2.29688C7.69271 2.5 6.9974 2.77083 6.35156 3.10938C5.70573 3.44271 5.11979 3.80729 4.59375 4.20312C4.07292 4.59375 3.6224 4.98438 3.24219 5.375C2.86719 5.76042 2.57812 6.10417 2.375 6.40625C2.17708 6.70833 2.07812 6.9349 2.07812 7.08594C2.07812 7.26823 2.17708 7.51823 2.375 7.83594C2.57812 8.15365 2.86719 8.50521 3.24219 8.89062C3.6224 9.27604 4.07292 9.66406 4.59375 10.0547C5.11979 10.4401 5.70573 10.7969 6.35156 11.125C6.9974 11.4479 7.69271 11.7083 8.4375 11.9062C9.18229 12.1042 9.96354 12.2031 10.7812 12.2031ZM10.7812 11.1719C10.2083 11.1719 9.67448 11.0651 9.17969 10.8516C8.6849 10.638 8.25 10.3438 7.875 9.96875C7.5 9.58854 7.20573 9.15104 6.99219 8.65625C6.78385 8.16146 6.67969 7.63802 6.67969 7.08594C6.67969 6.51823 6.78385 5.98698 6.99219 5.49219C7.20573 4.9974 7.5 4.5651 7.875 4.19531C8.25 3.82031 8.6849 3.52865 9.17969 3.32031C9.67448 3.11198 10.2083 3.00781 10.7812 3.00781C11.349 3.00781 11.8802 3.11198 12.375 3.32031C12.8698 3.52865 13.3047 3.82031 13.6797 4.19531C14.0547 4.5651 14.3464 4.9974 14.5547 5.49219C14.7682 5.98698 14.875 6.51823 14.875 7.08594C14.875 7.63802 14.7682 8.16146 14.5547 8.65625C14.3464 9.15104 14.0547 9.58854 13.6797 9.96875C13.3047 10.3438 12.8698 10.638 12.375 10.8516C11.8802 11.0651 11.349 11.1719 10.7812 11.1719ZM10.7734 8.38281C11.1328 8.38281 11.4401 8.25521 11.6953 8C11.9505 7.74479 12.0781 7.4401 12.0781 7.08594C12.0781 6.73177 11.9505 6.42969 11.6953 6.17969C11.4401 5.92448 11.1328 5.79688 10.7734 5.79688C10.4141 5.79688 10.1068 5.92448 9.85156 6.17969C9.60156 6.42969 9.47656 6.73177 9.47656 7.08594C9.47656 7.4401 9.60156 7.74479 9.85156 8C10.1068 8.25521 10.4141 8.38281 10.7734 8.38281Z" fill="black"/>
</svg>
